# xmcd CD database file
#
# Track frame offsets:
#	150
#	18309
#	33091
#	46976
#	62117
#	79687
#	92321
#	109995
#	131558
#
# Disc length: 1995 seconds
#
# Revision: 0
# Processed by: cddbd v1.5.2PL0 Copyright (c) Steve Scherf et al.
# Submitted via: CDex 1.72
#
DISCID=6607c909
DTITLE=Chisholm, Jake [CDN-13-Diamond In A Colemine-blues) - Diamond In A Coalmine
DYEAR=2013
DGENRE=Blues
TTITLE0=I'm Gonna Let You Be
TTITLE1=Let's Do It Again
TTITLE2=Traveling Riverside Blues
TTITLE3=Don't Take It So Hard
TTITLE4=Blood Red Sun
TTITLE5=You Better Run
TTITLE6=Diamond In A Coal Mine
TTITLE7=That's All They Can See
TTITLE8=When Love Goes Wrong
EXTD=YEAR: 2013
EXTT0=
EXTT1=
EXTT2=
EXTT3=
EXTT4=
EXTT5=
EXTT6=
EXTT7=
EXTT8=
PLAYORDER=
